#!OML:ASF E:\motion texture\Top Level 1\Subject 1\Session 1\male.ASF
:FULLY-SPECIFIED
:DEGREES
324
root -12.6373 17.9064 3.88549 575.222 -88.9742 -575.871
lowerback 6.41197 -4.92628 -3.76783
upperback -1.39105 -6.78648 2.49293
thorax -4.28934 -3.24736 5.3402
lowerneck -19.3682 -1.35812 -3.37207
upperneck 14.9576 -2.05483 5.74137
head 7.9023 -0.605926 2.2125
rclavicle 5.56659e-014 -7.15625e-015
rhumerus -58.0383 3.62903 -75.2602
rradius 67.7862
rwrist -1.52277
rhand -14.1409 -26.3456
rfingers 7.12502
rthumb 11.9933 -55.982
lclavicle 5.56659e-014 -7.15625e-015
lhumerus -20.6414 -15.5549 95.5571
lradius 67.9768
lwrist -2.05404
lhand -12.1436 2.46559
lfingers 7.12502
lthumb 13.9186 31.9798
rfemur -79.2177 -6.33157 23.2064
rtibia 83.5777
rfoot 736.23 -27.7568
rtoes 16.7679
lfemur 6.24746 -6.61884 -26.691
ltibia 16.5963
lfoot 343.514 -0.53716
ltoes 2.38091
325
root -12.7684 17.887 3.87608 584.975 -89.0441 -585.312
lowerback 6.20132 -4.87637 -3.82936
upperback -1.43825 -6.71884 2.47915
thorax -4.22257 -3.21386 5.33527
lowerneck -19.3516 -1.44632 -3.44469
upperneck 14.824 -2.15874 5.7963
head 7.86162 -0.65503 2.22869
rclavicle 6.71613e-014 -9.54166e-015
rhumerus -57.4099 3.67419 -75.6889
rradius 67.7949
rwrist -1.66582
rhand -14.5311 -27.3572
rfingers 7.12502
rthumb 11.617 -57.0152
lclavicle 6.71613e-014 -9.54166e-015
lhumerus -20.8059 -15.5408 95.695
lradius 67.8712
lwrist -2.03562
lhand -12.1124 2.51425
lfingers 7.12502
lthumb 13.9487 32.0264
rfemur -78.4561 -6.54715 23.0594
rtibia 81.6933
rfoot 737.011 -17.0178
rtoes 16.8836
lfemur 6.3949 -6.6187 -26.7295
ltibia 16.5849
lfoot 343.275 -0.703442
ltoes 2.07504
326
root -12.901 17.8676 3.86618 596.953 -89.0903 -596.976
lowerback 5.9761 -4.82668 -3.89253
upperback -1.48098 -6.65099 2.46141
thorax -4.14329 -3.1808 5.32565
lowerneck -19.3438 -1.53697 -3.52211
upperneck 14.6928 -2.26477 5.85306
head 7.82365 -0.705114 2.24609
rclavicle 6.07706e-014 -1.66979e-014
rhumerus -56.736 3.70524 -76.1174
rradius 67.781
rwrist -1.8017
rhand -14.8661 -28.1641
rfingers 7.12502
rthumb 11.2938 -57.8401
lclavicle 6.07706e-014 -1.66979e-014
lhumerus -20.9788 -15.5432 95.8343
lradius 67.7668
lwrist -2.03619
lhand -12.0501 2.58164
lfingers 7.12502
lthumb 14.0087 32.0896
rfemur -77.5664 -6.78807 22.8917
rtibia 79.8862
rfoot 737.921 -6.33876
rtoes 17.0876
lfemur 6.54603 -6.61036 -26.7591
ltibia 16.5707
lfoot 343.053 -0.90201
ltoes 1.7434
327
root -13.0352 17.848 3.85591 610.231 -89.0995 -609.941
lowerback 5.74467 -4.77625 -3.95134
upperback -1.52355 -6.58143 2.44085
thorax -4.06139 -3.14712 5.31038
lowerneck -19.3376 -1.62822 -3.59989
upperneck 14.565 -2.37089 5.90643
head 7.78723 -0.755568 2.26247
rclavicle -4.03564e-014 1.74931e-014
rhumerus -56.0226 3.71264 -76.5262
rradius 67.7184
rwrist -1.89966
rhand -15.06 -28.4158
rfingers 7.12502
rthumb 11.1069 -58.1019
lclavicle -4.03564e-014 1.74931e-014
lhumerus -21.1789 -15.561 95.9772
lradius 67.6761
lwrist -2.05536
lhand -11.9831 2.67071
lfingers 7.12502
lthumb 14.0732 32.1742
rfemur -76.5477 -7.04586 22.7108
rtibia 78.138
rfoot 738.491 -5.90922
rtoes 17.3394
lfemur 6.71097 -6.60216 -26.7806
ltibia 16.542
lfoot 342.857 -1.11898
ltoes 1.40547
328
root -13.171 17.8285 3.84539 623.571 -89.0721 -622.977
lowerback 5.50823 -4.72809 -4.00048
upperback -1.5617 -6.51374 2.42059
thorax -3.9729 -3.11494 5.28986
lowerneck -19.3413 -1.71925 -3.68008
upperneck 14.4526 -2.4754 5.95447
head 7.75763 -0.80566 2.27784
rclavicle 7.78056e-015 -1.27222e-014
rhumerus -55.2501 3.63895 -76.8264
rradius 67.4437
rwrist -1.80387
rhand -14.9099 -26.5915
rfingers 7.12502
rthumb 11.2516 -56.2697
lclavicle 7.78056e-015 -1.27222e-014
lhumerus -21.4034 -15.5852 96.1201
lradius 67.5968
lwrist -2.09173
lhand -11.9098 2.77195
lfingers 7.12502
lthumb 14.1439 32.2705
rfemur -75.3938 -7.31658 22.5273
rtibia 76.3272
rfoot 739.087 -5.63618
rtoes 17.5956
lfemur 6.89746 -6.58593 -26.7837
ltibia 16.5031
lfoot 342.68 -1.35894
ltoes 1.07378
329
root -13.3091 17.8088 3.83388 636.343 -89.0135 -635.452
lowerback 5.26953 -4.68213 -4.03815
upperback -1.60084 -6.44784 2.40304
thorax -3.88489 -3.08392 5.26625
lowerneck -19.3314 -1.8069 -3.75687
upperneck 14.3368 -2.57539 5.99721
head 7.72438 -0.854204 2.29142
rclavicle 4.30928e-014 -1.59028e-015
rhumerus -54.4186 3.4228 -76.9443
rradius 66.9085
rwrist -1.24504
rhand -13.94 -22.2731
rfingers 7.12502
rthumb 12.187 -51.8981
lclavicle 4.30928e-014 -1.59028e-015
lhumerus -21.6692 -15.6218 96.2667
lradius 67.5312
lwrist -2.14124
lhand -11.8651 2.86872
lfingers 7.12502
lthumb 14.187 32.3643
rfemur -74.107 -7.59341 22.35
rtibia 74.4532
rfoot 739.708 -5.47597
rtoes 17.8281
lfemur 7.10572 -6.56519 -26.7575
ltibia 16.4536
lfoot 342.525 -1.62645
ltoes 0.762953
330
root -13.45 17.789 3.82143 647.883 -88.9337 -646.703
lowerback 5.01987 -4.63734 -4.05666
upperback -1.63758 -6.38155 2.39025
thorax -3.78975 -3.05346 5.23617
lowerneck -19.3113 -1.89098 -3.82368
upperneck 14.2177 -2.67109 6.02804
head 7.68792 -0.901521 2.29992
rclavicle -4.54409e-014 7.95139e-016
rhumerus -53.5374 3.0895 -76.9348
rradius 66.1818
rwrist -0.379731
rhand -12.4228 -16.3213
rfingers 7.12502
rthumb 13.6495 -45.8538
lclavicle -4.54409e-014 7.95139e-016
lhumerus -21.971 -15.6693 96.4157
lradius 67.4694
lwrist -2.19779
lhand -11.8309 2.97001
lfingers 7.12502
lthumb 14.2199 32.4632
rfemur -72.6913 -7.86662 22.1906
rtibia 72.5239
rfoot 740.343 -5.39675
rtoes 18.0775
lfemur 7.32816 -6.52709 -26.6891
ltibia 16.4096
lfoot 342.381 -1.92472
ltoes 0.46631
331
root -13.5947 17.7689 3.80765 658.35 -88.8359 -656.892
lowerback 4.75905 -4.59351 -4.05933
upperback -1.6786 -6.31499 2.3845
thorax -3.69366 -3.02318 5.20428
lowerneck -19.2711 -1.97036 -3.89699
upperneck 14.1031 -2.76055 6.06425
head 7.6495 -0.946065 2.31214
rclavicle 1.15121e-013 -3.69739e-014
rhumerus -52.6528 2.75342 -76.9544
rradius 65.4654
rwrist 0.392414
rhand -11.0612 -10.7037
rfingers 7.12502
rthumb 14.9616 -40.1433
lclavicle 1.15121e-013 -3.69739e-014
lhumerus -22.3206 -15.7252 96.5728
lradius 67.3996
lwrist -2.26396
lhand -11.8122 3.03891
lfingers 7.12502
lthumb 14.238 32.5309
rfemur -71.1501 -8.13398 22.0551
rtibia 70.5537
rfoot 740.984 -5.38521
rtoes 18.3702
lfemur 7.56742 -6.46886 -26.5746
ltibia 16.3717
lfoot 342.249 -2.25563
ltoes 0.173926
332
root -13.7428 17.7484 3.79259 667.865 -88.7085 -666.126
lowerback 4.48057 -4.55194 -4.05443
upperback -1.72593 -6.2504 2.38347
thorax -3.59419 -2.99406 5.17235
lowerneck -19.2118 -2.04669 -3.973
upperneck 13.9856 -2.84583 6.10163
head 7.60683 -0.989042 2.32575
rclavicle 6.276e-014 -7.15625e-015
rhumerus -51.7756 2.47422 -77.0865
rradius 64.8924
rwrist 0.951648
rhand -10.1091 -6.46418
rfingers 7.12502
rthumb 15.8786 -35.8332
lclavicle 6.276e-014 -7.15625e-015
lhumerus -22.7059 -15.7923 96.7339
lradius 67.3068
lwrist -2.34616
lhand -11.8467 3.08376
lfingers 7.12502
lthumb 14.2047 32.5781
rfemur -69.5052 -8.40612 21.9375
rtibia 68.5612
rfoot 741.635 -5.44074
rtoes 18.7776
lfemur 7.80971 -6.39688 -26.4281
ltibia 16.3451
lfoot 342.139 -2.61821
ltoes -0.100126
333
root -13.8949 17.7275 3.77653 676.027 -88.557 -674.01
lowerback 4.19318 -4.50813 -4.03957
upperback -1.79005 -6.18221 2.38595
thorax -3.50819 -2.9626 5.13909
lowerneck -19.1297 -2.12307 -4.05417
upperneck 13.883 -2.93106 6.13702
head 7.56539 -1.0328 2.33975
rclavicle 2.7805e-014 1.98785e-015
rhumerus -50.9419 2.33846 -77.4225
rradius 64.5884
rwrist 1.12375
rhand -9.83876 -4.26888
rfingers 7.12502
rthumb 16.1389 -33.6169
lclavicle 2.7805e-014 1.98785e-015
lhumerus -23.1409 -15.8729 96.9065
lradius 67.1776
lwrist -2.44209
lhand -11.868 3.11173
lfingers 7.12502
lthumb 14.1842 32.6075
rfemur -67.7621 -8.67601 21.8393
rtibia 66.5679
rfoot 742.269 -5.58284
rtoes 19.3114
lfemur 8.05193 -6.30116 -26.2513
ltibia 16.3421
lfoot 342.051 -3.00353
ltoes -0.41974
334
root -14.0511 17.7065 3.75949 682.918 -88.387 -680.633
lowerback 3.90394 -4.46063 -4.01691
upperback -1.86706 -6.1089 2.39124
thorax -3.43555 -2.9281 5.10538
lowerneck -19.0346 -2.20124 -4.14672
upperneck 13.804 -3.01801 6.17522
head 7.52997 -1.0778 2.35661
rclavicle 8.18123e-015 -5.56597e-015
rhumerus -50.1448 2.35497 -77.9572
rradius 64.5521
rwrist 0.928285
rhand -10.1997 -3.91766
rfingers 7.12502
rthumb 15.7913 -33.2935
lclavicle 8.18123e-015 -5.56597e-015
lhumerus -23.6194 -15.9642 97.0899
lradius 66.999
lwrist -2.55017
lhand -11.8841 3.13471
lfingers 7.12502
lthumb 14.1687 32.6315
rfemur -65.9119 -8.93759 21.756
rtibia 64.5872
rfoot 742.874 -5.82473
rtoes 19.9511
lfemur 8.30136 -6.18054 -26.0475
ltibia 16.3719
lfoot 341.987 -3.40915
ltoes -0.795091
335
root -14.2116 17.6853 3.74134 688.593 -88.202 -686.052
lowerback 3.60985 -4.40712 -3.99029
upperback -1.95563 -6.02762 2.3967
thorax -3.37338 -2.88921 5.07011
lowerneck -18.9275 -2.28244 -4.24662
upperneck 13.7466 -3.10839 6.21079
head 7.50004 -1.12516 2.37363
rclavicle -2.96872e-014 -3.57812e-015
rhumerus -49.3716 2.48153 -78.6311
rradius 64.7318
rwrist 0.494749
rhand -10.9705 -5.00551
rfingers 7.12502
rthumb 15.0489 -34.4386
lclavicle -2.96872e-014 -3.57812e-015
lhumerus -24.1461 -16.0644 97.2833
lradius 66.77
lwrist -2.67997
lhand -11.8625 3.16771
lfingers 7.12502
lthumb 14.1895 32.6631
rfemur -63.9669 -9.18555 21.6823
rtibia 62.6489
rfoot 743.419 -6.16133
rtoes 20.6132
lfemur 8.55063 -6.03978 -25.8241
ltibia 16.4498
lfoot 341.95 -3.82994
ltoes -1.23573
336
root -14.3762 17.6639 3.72204 693.629 -88.0201 -690.841
lowerback 3.29848 -4.34763 -3.94862
upperback -2.04887 -5.93734 2.4075
thorax -3.30813 -2.84625 5.03094
lowerneck -18.8395 -2.37011 -4.33358
upperneck 13.7346 -3.20663 6.21241
head 7.488 -1.17809 2.37664
rclavicle -1.78471e-014 1.35174e-014
rhumerus -48.5829 2.63066 -79.3349
rradius 64.9316
rwrist -0.0390396
rhand -11.897 -6.28461
rfingers 7.12502
rthumb 14.1562 -35.7823
lclavicle -1.78471e-014 1.35174e-014
lhumerus -24.7005 -16.1687 97.4765
lradius 66.4724
lwrist -2.82217
lhand -11.8165 3.19994
lfingers 7.12502
lthumb 14.2339 32.6922
rfemur -61.9339 -9.39797 21.6309
rtibia 60.7737
rfoot 743.883 -6.57495
rtoes 21.2186
lfemur 8.78819 -5.88687 -25.5637
ltibia 16.5964
lfoot 341.931 -4.25371
ltoes -1.75918
